# xmcd
#
# Track frame offsets:
#	150
#	19578
#	53896
#	70099
#	93266
#	107881
#	134667
#	156839
#	182692
#	210323
#	242344
#	263026
#	282832
#	302483
#	326029
#
# Disc length: 4568 seconds
#
# Revision: 1
# Processed by: cddbd v1.5.2PL0 Copyright (c) Steve Scherf et al.
# Submitted via: EasyCDDAExtractor 8.0.0.2
#
DISCID=c911d60f
DTITLE=Asian Dub Foundation - Time Freeze (The Best of 1995-2007)
DYEAR=2007
DGENRE=Alternative
TTITLE0=Debris
TTITLE1=Cuplture Move (pusher sound mix)
TTITLE2=Memory War
TTITLE3=Siberian Slengteng
TTITLE4=Black Steel in the Hour of Chaos (featuring - shuck d)
TTITLE5=Son of a Bush (featuring - shuck d)
TTITLE6=Modern Apprentice
TTITLE7=Free Satpal Ram (jazzward remix)
TTITLE8=Fortress Europe (jazzward remix)
TTITLE9=Journey
TTITLE10=Oil
TTITLE11=Hope (congo natty remix)
TTITLE12=Rafi
TTITLE13=Round Up (sun j remix)
TTITLE14=Activists and Selectors
EXTD=
EXTT0=
EXTT1=
EXTT2=
EXTT3=
EXTT4=
EXTT5=
EXTT6=
EXTT7=
EXTT8=
EXTT9=
EXTT10=
EXTT11=
EXTT12=
EXTT13=
EXTT14=
PLAYORDER=
